# xmcd
#
# Track frame offsets:
#	150
#	16004
#	32822
#	51693
#	66321
#	83619
#	97902
#	113312
#	126760
#	143986
#
# Disc length: 2149 seconds
#
# Revision: 1
# Processed by: cddbd v1.5.2PL0 Copyright (c) Steve Scherf et al.
# Submitted via: audiograbber 1.83.01
#
DISCID=7c08630a
DTITLE=Kenny Rogers - Love Is What We Make It
DYEAR=1985
DGENRE=Country
TTITLE0=Love Is What We Make It
TTITLE1=Twentieth Century Fool
TTITLE2=Still Hold On
TTITLE3=Tie Me To Your Heart Again
TTITLE4=Maybe In The End
TTITLE5=It Turns Me Inside Out
TTITLE6=It Happens In The Best Of Dreams
TTITLE7=A Stranger In My Place
TTITLE8=Starting Today, Starting Over
TTITLE9=Born To Love Me
EXTD=
EXTT0=
EXTT1=
EXTT2=
EXTT3=
EXTT4=
EXTT5=
EXTT6=
EXTT7=
EXTT8=
EXTT9=
PLAYORDER=
